<svg id="Layer_1" enable-background="new 0 0 512 512" height="512" viewBox="0 0 512 512" width="512" xmlns="http://www.w3.org/2000/svg"><path d="m464.007 385.189h-75.724c-4.301 0-7.787-3.485-7.787-7.784s3.486-7.784 7.787-7.784h75.724c9.642 0 17.486-7.853 17.486-17.506v-24.981c0-4.299 3.486-7.784 7.787-7.784s7.787 3.485 7.787 7.784v24.981c-.001 18.237-14.831 33.074-33.06 33.074z" fill="#838383"/><g clip-rule="evenodd" fill-rule="evenodd"><path d="m70.707 69.838-19.853-9.008-20.441 9.008v385.821l20.132 17.613 20.162-17.613z" fill="#ececec"/><path d="m426.532 205.017h-38.249l-10.468 14.734 10.468 20.306h33.48c9.26 0 12.172 5.51 17.839 11.453l6.845 7.584 21.494-7.058-2.942-24.485-11.273-11.732c-10.748-11.173-12.978-10.802-27.194-10.802z" fill="#9b9b9b"/><path d="m504.269 250.521-23.724-29.5c-2.818-3.498-9.26-4.117-11.552-.248l-3.995 6.779-18.552 31.543-5.017 8.544c-5.172 8.822-1.796 12.66 2.199 22.257l13.132 30.707c2.54 5.974 3.933 6.531 10.406 6.531h22.113 2.478c20.812 0 20.1-10.153 20.1-25.754v-12.227c0-15.106 1.827-26.931-7.588-38.632z" fill="#80d261"/><path d="m359.139 125.959h-184.215c-16.043 0-29.144 13.125-29.144 29.128v261.32l123.388 26.188 119.114-26.188v-39.003-137.346-35.041-49.93c.001-16.003-13.1-29.128-29.143-29.128z" fill="#ececec"/><path d="m388.283 416.408h-242.503-.372c-10.809 0-19.636 8.822-19.636 19.625v19.625l140.268 18.852 146.524-18.852v-19.625c0-10.803-8.827-19.625-19.636-19.625z" fill="#80d261"/><path d="m50.545 69.838h20.162v385.821h-20.162z" fill="#cecece"/><path d="m388.283 155.087c0-16.004-13.101-29.128-29.144-29.128h-24.033c16.043 0 29.175 13.125 29.175 29.128v19.656 208.481 33.184h24.003v-39.003-137.347-35.041-49.93z" fill="#cecece"/><path d="m504.269 250.521-23.724-29.5c-2.818-3.498-9.26-4.117-11.552-.248l-5.884 9.998 19.821 24.609c9.384 11.67 10.406 21.668 10.406 36.774v9.225c0 15.601.712 25.754-20.1 25.754h16.043 2.478c20.812 0 20.1-10.153 20.1-25.754v-12.227c0-15.105 1.827-26.93-7.588-38.631z" fill="#4fc122"/><path d="m412.564 436.033c0-10.803-8.827-19.625-19.636-19.625h-4.646-21.711c3.562 0 6.907.96 9.787 2.6 5.884 3.405 9.88 9.782 9.88 17.025v19.625h2.044 24.281v-19.625z" fill="#4fc122"/><path d="m426.532 205.017h-38.249v15.787h28.989c14.185 0 16.446-.371 27.193 10.803l11.273 11.732 9.26-15.787-11.273-11.732c-10.747-11.174-12.977-10.803-27.193-10.803z" fill="#838383"/><path d="m476.364 13.5h-448.18c-15.517 0-28.184 12.661-28.184 28.169v15.911c0 6.748 5.513 12.258 12.234 12.258h18.18 40.293 421.608c6.721 0 12.234-5.51 12.234-12.258v-15.911c-.001-15.508-12.668-28.169-28.185-28.169z" fill="#80d261"/><path d="m504.548 41.669c0-15.508-12.667-28.169-28.184-28.169h-65.473c15.516 0 28.184 12.661 28.184 28.169v15.911c0 6.748-5.513 12.258-12.234 12.258h65.473c6.721 0 12.234-5.51 12.234-12.258z" fill="#4fc122"/><path d="m125.773 455.659h-55.066-40.294-8.982c-11.799 0-21.431 9.657-21.431 21.42 0 11.794 9.632 21.421 21.432 21.421h461.684c11.8 0 21.432-9.627 21.432-21.421 0-11.763-9.632-21.421-21.432-21.421h-70.552-24.281-242.503-20.007z" fill="#9b9b9b"/><path d="m504.548 477.079c0-11.763-9.632-21.421-21.432-21.421h-43.143c11.8 0 21.432 9.658 21.432 21.421 0 11.794-9.632 21.421-21.432 21.421h43.143c11.8 0 21.432-9.627 21.432-21.421z" fill="#838383"/></g><path d="m331.266 351.077h-39.767c-4.301 0-7.787-3.485-7.787-7.784s3.486-7.784 7.787-7.784h39.767c4.301 0 7.787 3.485 7.787 7.784-.001 4.299-3.487 7.784-7.787 7.784z" fill="#838383"/><path d="m246.839 351.077h-39.767c-4.301 0-7.787-3.485-7.787-7.784s3.486-7.784 7.787-7.784h39.767c4.301 0 7.787 3.485 7.787 7.784s-3.487 7.784-7.787 7.784z" fill="#838383"/><path d="m331.266 313.962h-39.767c-4.301 0-7.787-3.485-7.787-7.784s3.486-7.784 7.787-7.784h39.767c4.301 0 7.787 3.485 7.787 7.784-.001 4.299-3.487 7.784-7.787 7.784z" fill="#838383"/><path d="m246.839 313.962h-39.767c-4.301 0-7.787-3.485-7.787-7.784s3.486-7.784 7.787-7.784h39.767c4.301 0 7.787 3.485 7.787 7.784s-3.487 7.784-7.787 7.784z" fill="#838383"/><path clip-rule="evenodd" d="m349.849 174.745v82.028c0 6.003-4.924 10.925-10.93 10.925h-139.96c-6.037 0-10.93-4.922-10.93-10.925v-82.028c0-6.003 4.893-10.925 10.93-10.925h139.96c6.006-.001 10.93 4.921 10.93 10.925z" fill="#a6e7f0" fill-rule="evenodd"/><path d="m301.07 221.638-23.416 46.06h-16.524c0-1.184.268-2.389.845-3.522l25.209-49.591c1.957-3.831 6.645-5.355 10.477-3.408 3.832 1.945 5.356 6.631 3.409 10.461z" fill="#838383"/><path clip-rule="evenodd" d="m252.351 163.817h-53.394c-6.039 0-10.933 4.922-10.933 10.927v9.998h135.467c6.008 0 6.752 1.641 6.752 5.758v77.201h8.672c6.008 0 10.933-4.922 10.933-10.927v-82.03c0-6.005-4.924-10.927-10.933-10.927h-51.319z" fill="#6bd9e7" fill-rule="evenodd"/></svg>