<svg height="496pt" viewBox="0 -20 496 496" width="496pt" xmlns="http://www.w3.org/2000/svg"><path d="m392 24h96v32h-96zm0 0" fill="#8cc152"/><path d="m204.558594 240h155.441406c8.800781 0 16 7.199219 16 16v176c0 8.800781-7.199219 16-16 16h-336c-8.800781 0-16-7.199219-16-16v-176c0-8.800781 7.199219-16 16-16h91.441406l4.558594 16h16v48h-60c-5.519531 0-10.558594 2.238281-14.160156 5.839844-3.601563 3.601562-5.839844 8.640625-5.839844 14.160156 0 11.039062 8.960938 20 20 20h232c5.519531 0 10.558594-2.238281 14.160156-5.839844 3.601563-3.601562 5.839844-8.640625 5.839844-14.160156 0-11.039062-8.960938-20-20-20h-124v-48h16zm0 0" fill="#e6e9ed"/><path d="m136 304v40h-60c-11.039062 0-20-8.960938-20-20 0-5.519531 2.238281-10.558594 5.839844-14.160156 3.601562-3.601563 8.640625-5.839844 14.160156-5.839844zm0 0" fill="#969faa"/><path d="m308 304c11.039062 0 20 8.960938 20 20 0 5.519531-2.238281 10.558594-5.839844 14.160156-3.601562 3.601563-8.640625 5.839844-14.160156 5.839844h-124v-40zm0 0" fill="#969faa"/><path d="m112 392c0 8.835938-7.164062 16-16 16s-16-7.164062-16-16 7.164062-16 16-16 16 7.164062 16 16zm0 0" fill="#fcd770"/><path d="m240 392c0 8.835938-7.164062 16-16 16s-16-7.164062-16-16 7.164062-16 16-16 16 7.164062 16 16zm0 0" fill="#fcd770"/><path d="m176 392c0 8.835938-7.164062 16-16 16s-16-7.164062-16-16 7.164062-16 16-16 16 7.164062 16 16zm0 0" fill="#b4dd7f"/><path d="m304 392c0 8.835938-7.164062 16-16 16s-16-7.164062-16-16 7.164062-16 16-16 16 7.164062 16 16zm0 0" fill="#b4dd7f"/><path d="m184 256v88h-48v-88zm0 0" fill="#aab2bd"/><path d="m184 136-8 120h-32l-8-120zm0 0" fill="#ffeaa7"/><path d="m209.679688 135.601562 22.160156-4.882812c.160156 1.121094.160156 2.242188.160156 3.441406 0 6.558594-.878906 13.039063-2.71875 19.28125l-24.722656 86.558594-4.558594 16h-24l8-120h22.238281c1.203125 0 2.320313-.160156 3.441407-.398438zm0 0" fill="#d3a06c"/><path d="m223.121094 86.960938-11.28125 6.71875c-2.558594 1.519531-5.359375 2.320312-8.238282 2.320312h-51.601562c-8.800781 0-16.800781 3.601562-22.640625 9.359375-5.757813 5.839844-9.359375 13.839844-9.359375 22.640625 0 4.398438 3.601562 8 8 8h8l8 120h-24l-4.558594-16-24.722656-86.558594c-1.839844-6.242187-2.71875-12.722656-2.71875-19.28125 0-16.960937 6-32.480468 16-44.640625 10-12.078125 24-20.800781 40-24.078125v-.800781l48.640625-1.199219c4.320313 0 8.398437 1.679688 11.359375 4.636719zm0 0" fill="#d3a06c"/><path d="m392 56h96v80h-96zm0 0" fill="#b4dd7f"/><path d="m392 56v80h-32v-112h32zm0 0" fill="#e6e9ed"/><path d="m360 24v112h-32v-112zm0 0" fill="#a0d468"/><path d="m231.839844 130.71875-22.160156 4.882812c-1.121094.238282-2.238282.398438-3.441407.398438h-78.238281c-4.398438 0-8-3.601562-8-8 0-8.800781 3.601562-16.800781 9.359375-22.640625 5.839844-5.757813 13.839844-9.359375 22.640625-9.359375h51.601562c2.878907 0 5.679688-.800781 8.238282-2.320312l11.28125-6.71875-19.121094-18.882813c-2.960938-2.957031-7.039062-4.636719-11.359375-4.636719l-48.640625 1.199219-4 .078125c-2.160156 0-4.320312.480469-6.320312 1.28125l-49.839844 21.039062c-2.238282.960938-4.320313 2.480469-5.917969 4.320313l-40.882813 46.960937c-3.117187 3.601563-7.679687 5.679688-12.480468 5.679688-9.199219 0-16.558594-7.28125-16.558594-16.320312v-2.238282c0-3.363281 1.039062-6.722656 3.039062-9.441406l35.601563-49.039062c1.039063-1.441407 2.320313-2.722657 3.839844-3.761719l74-51.039063c2.71875-1.839844 5.917969-2.878906 9.199219-2.878906l81.199218-1.28125c5.601563 0 11.121094 1.441406 16 4.160156l41.441406 23.359375c4.878907 2.71875 10.398438 4.160157 16 4.160157h39.679688v80.320312h-46.238281c-1.203125 0-2.320313.160156-3.441407.398438zm0 0" fill="#f0d0b4"/><path d="m496 144v-128h-176v15.679688h-31.679688c-4.222656 0-8.410156-1.085938-12.074218-3.128907l-41.476563-23.375c-6.066406-3.382812-12.945312-5.175781-20.007812-5.175781l-81.082031 1.28125c-4.839844 0-9.566407 1.472656-13.742188 4.292969l-73.976562 51.019531c-2.242188 1.535156-4.199219 3.445312-5.800782 5.664062l-35.574218 49c-2.953126 4.03125-4.585938 9.070313-4.585938 14.183594v2.238282c0 13.410156 11.015625 24.320312 24.558594 24.320312 7.136718 0 13.890625-3.078125 18.511718-8.425781l40.890626-46.964844c.808593-.929687 1.910156-1.730469 2.992187-2.195313l5.367187-2.261718c-7.953124 12.496094-12.320312 27.085937-12.320312 42.007812 0 7.441406 1.023438 14.6875 3.023438 21.480469l21.800781 76.359375h-80.824219c-13.230469 0-24 10.769531-24 24v176c0 13.230469 10.769531 24 24 24h336c13.230469 0 24-10.769531 24-24v-176c0-13.230469-10.769531-24-24-24h-144.824219l21.777344-76.296875c1.75-5.925781 2.597656-12.191406 2.839844-18.574219l40.191406-8.90625c.726563-.152344 1.273437-.222656 1.777344-.222656h38.238281v16zm-112-16h-16v-96h16zm96-80h-24v16h24v64h-80v-64h40v-16h-40v-16h80zm-144-16h16v96h-16zm-240 102.160156c0-14.601562 4.902344-28.28125 14.160156-39.535156 9.054688-10.9375 21.648438-18.511719 35.449219-21.34375l-.144531-.6875 47.175781-1.144531c2.191406 0 4.222656.816406 5.734375 2.328125l11.753906 11.605468-2.375 1.425782c-1.339844.792968-2.738281 1.191406-4.152344 1.191406h-51.601562c-10.59375 0-20.632812 4.144531-28.335938 11.742188-7.519531 7.625-11.664062 17.664062-11.664062 28.257812 0 8.824219 7.175781 16 16 16h.519531l6.9375 104h-9.410156l-27.648437-96.824219c-1.589844-5.382812-2.398438-11.113281-2.398438-17.015625zm96 177.839844h116c6.617188 0 12 5.382812 12 12 0 3.183594-1.273438 6.28125-3.496094 8.496094-2.222656 2.230468-5.328125 3.503906-8.503906 3.503906h-116zm-16 24h-32v-72h32zm-48 0h-52c-6.617188 0-12-5.382812-12-12 0-3.183594 1.273438-6.28125 3.496094-8.496094 2.222656-2.230468 5.328125-3.503906 8.503906-3.503906h52zm23.480469-88-6.9375-104h30.90625l-6.9375 104zm208.519531 0c4.40625 0 8 3.585938 8 8v176c0 4.414062-3.59375 8-8 8h-336c-4.40625 0-8-3.585938-8-8v-176c0-4.414062 3.59375-8 8-8h85.390625l4.570313 16h14.039062v32h-52c-7.503906 0-14.535156 2.902344-19.816406 8.175781-5.199219 5.199219-8.183594 12.417969-8.183594 19.824219 0 15.441406 12.558594 28 28 28h232c7.503906 0 14.535156-2.902344 19.816406-8.175781 5.199219-5.199219 8.183594-12.417969 8.183594-19.824219 0-15.441406-12.558594-28-28-28h-116v-32h14.039062l4.570313-16zm-138.40625-96.753906-27.632812 96.753906h-9.410157l6.9375-104h14.75c1.640625 0 3.265625-.183594 5.167969-.585938l12.144531-2.6875c-.382812 3.585938-.957031 7.121094-1.957031 10.519532zm60.167969-39.246094c-1.640625 0-3.265625.183594-5.175781.59375l-68.570313 15.183594c-.726563.152344-1.273437.222656-1.777344.222656h-78.238281c0-6.359375 2.503906-12.40625 6.976562-16.945312 4.617188-4.550782 10.664063-7.054688 17.023438-7.054688h51.601562c4.269532 0 8.527344-1.191406 12.335938-3.449219l36.183594-21.695312-8.242188-13.710938-19.574218 11.734375-14.648438-14.464844c-4.496094-4.492187-10.535156-6.972656-17.199219-6.972656h-.007812l-52.449219 1.277344c-3.097656 0-6.214844.625-9.433594 1.914062l-49.886718 21.054688c-3.359376 1.441406-6.40625 3.664062-8.800782 6.417969l-40.894531 46.984375c-1.601563 1.847656-3.945313 2.910156-6.425781 2.910156-4.796875 0-8.558594-3.65625-8.558594-8.320312v-2.238282c0-1.730468.527344-3.402344 1.511719-4.746094l35.617187-49.054687c.527344-.738281 1.160156-1.351563 1.894532-1.855469l73.945312-51c1.457031-.984375 3.085938-1.503906 4.839844-1.503906l81.070312-1.28125c4.226563 0 8.410156 1.089844 12.074219 3.128906l41.480469 23.375c6.070312 3.382813 12.949218 5.167969 19.894531 5.167969h31.671875v64.328125zm0 0"/><path d="m96 368c-13.230469 0-24 10.769531-24 24s10.769531 24 24 24 24-10.769531 24-24-10.769531-24-24-24zm0 32c-4.40625 0-8-3.585938-8-8s3.59375-8 8-8 8 3.585938 8 8-3.59375 8-8 8zm0 0"/><path d="m160 368c-13.230469 0-24 10.769531-24 24s10.769531 24 24 24 24-10.769531 24-24-10.769531-24-24-24zm0 32c-4.40625 0-8-3.585938-8-8s3.59375-8 8-8 8 3.585938 8 8-3.59375 8-8 8zm0 0"/><path d="m224 368c-13.230469 0-24 10.769531-24 24s10.769531 24 24 24 24-10.769531 24-24-10.769531-24-24-24zm0 32c-4.40625 0-8-3.585938-8-8s3.59375-8 8-8 8 3.585938 8 8-3.59375 8-8 8zm0 0"/><path d="m288 368c-13.230469 0-24 10.769531-24 24s10.769531 24 24 24 24-10.769531 24-24-10.769531-24-24-24zm0 32c-4.40625 0-8-3.585938-8-8s3.59375-8 8-8 8 3.585938 8 8-3.59375 8-8 8zm0 0"/><path d="m256 264h16v16h-16zm0 0"/><path d="m288 264h16v16h-16zm0 0"/><path d="m320 264h16v16h-16zm0 0"/></svg>